<mxfile host="app.diagrams.net" modified="2024-02-15T07:43:41.241Z" agent="Mozilla/5.0 (Windows NT 10.0; Win64; x64) AppleWebKit/537.36 (KHTML, like Gecko) Chrome/120.0.0.0 Safari/537.36" etag="1huG3WXSxJzH3ComR2RA" version="23.1.4" type="device">
  <diagram name="Page-1" id="vfGMUqw6DaAGaZKLnIu0">
    <mxGraphModel dx="548" dy="1710" grid="1" gridSize="10" guides="1" tooltips="1" connect="1" arrows="1" fold="1" page="1" pageScale="1" pageWidth="827" pageHeight="1169" math="0" shadow="0">
      <root>
        <mxCell id="0" />
        <mxCell id="1" parent="0" />
        <mxCell id="NSZZyUumAfaSoyWjECCj-2" value="Ouverture de l&#39;image choisie" style="rounded=0;whiteSpace=wrap;html=1;" parent="1" vertex="1">
          <mxGeometry x="40" y="80" width="200" height="40" as="geometry" />
        </mxCell>
        <mxCell id="NSZZyUumAfaSoyWjECCj-3" value="Lecture des dimensions H et L de l&#39;image" style="rounded=0;whiteSpace=wrap;html=1;" parent="1" vertex="1">
          <mxGeometry x="40" y="160" width="200" height="40" as="geometry" />
        </mxCell>
        <mxCell id="NSZZyUumAfaSoyWjECCj-4" value="" style="endArrow=classic;html=1;rounded=0;entryX=0.5;entryY=0;entryDx=0;entryDy=0;exitX=0.5;exitY=1;exitDx=0;exitDy=0;" parent="1" source="NSZZyUumAfaSoyWjECCj-2" target="NSZZyUumAfaSoyWjECCj-3" edge="1">
          <mxGeometry width="50" height="50" relative="1" as="geometry">
            <mxPoint x="139.5" y="130" as="sourcePoint" />
            <mxPoint x="139.5" y="160" as="targetPoint" />
          </mxGeometry>
        </mxCell>
        <mxCell id="NSZZyUumAfaSoyWjECCj-5" value="Création d&#39;une seconde image vide de même hauteur et de (1+ 2 x M) % de la largeur de l&#39;image d&#39;origine" style="rounded=0;whiteSpace=wrap;html=1;" parent="1" vertex="1">
          <mxGeometry x="40" y="240" width="200" height="60" as="geometry" />
        </mxCell>
        <mxCell id="NSZZyUumAfaSoyWjECCj-6" value="" style="endArrow=classic;html=1;rounded=0;exitX=0.5;exitY=1;exitDx=0;exitDy=0;entryX=0.5;entryY=0;entryDx=0;entryDy=0;" parent="1" source="NSZZyUumAfaSoyWjECCj-3" target="NSZZyUumAfaSoyWjECCj-5" edge="1">
          <mxGeometry width="50" height="50" relative="1" as="geometry">
            <mxPoint x="390" y="330" as="sourcePoint" />
            <mxPoint x="440" y="280" as="targetPoint" />
          </mxGeometry>
        </mxCell>
        <mxCell id="NSZZyUumAfaSoyWjECCj-7" value="Pour chaque ligne y" style="rounded=0;whiteSpace=wrap;html=1;" parent="1" vertex="1">
          <mxGeometry x="40" y="340" width="200" height="40" as="geometry" />
        </mxCell>
        <mxCell id="NSZZyUumAfaSoyWjECCj-8" value="" style="endArrow=classic;html=1;rounded=0;exitX=0.5;exitY=1;exitDx=0;exitDy=0;entryX=0.5;entryY=0;entryDx=0;entryDy=0;" parent="1" source="NSZZyUumAfaSoyWjECCj-5" target="NSZZyUumAfaSoyWjECCj-7" edge="1">
          <mxGeometry width="50" height="50" relative="1" as="geometry">
            <mxPoint x="390" y="330" as="sourcePoint" />
            <mxPoint x="440" y="280" as="targetPoint" />
          </mxGeometry>
        </mxCell>
        <mxCell id="NSZZyUumAfaSoyWjECCj-9" value="Définition d&#39;un nombre aléatoire compris entre -M et M% de la largeur de l&#39;image d&#39;origine dans la variable N" style="rounded=0;whiteSpace=wrap;html=1;" parent="1" vertex="1">
          <mxGeometry x="90" y="420" width="200" height="60" as="geometry" />
        </mxCell>
        <mxCell id="NSZZyUumAfaSoyWjECCj-10" value="" style="endArrow=classic;html=1;rounded=0;exitX=0.5;exitY=1;exitDx=0;exitDy=0;entryX=0.25;entryY=0;entryDx=0;entryDy=0;" parent="1" source="NSZZyUumAfaSoyWjECCj-7" target="NSZZyUumAfaSoyWjECCj-9" edge="1">
          <mxGeometry width="50" height="50" relative="1" as="geometry">
            <mxPoint x="390" y="330" as="sourcePoint" />
            <mxPoint x="440" y="280" as="targetPoint" />
          </mxGeometry>
        </mxCell>
        <mxCell id="NSZZyUumAfaSoyWjECCj-11" value="Pour chaque colonne x" style="rounded=0;whiteSpace=wrap;html=1;" parent="1" vertex="1">
          <mxGeometry x="90" y="520" width="200" height="40" as="geometry" />
        </mxCell>
        <mxCell id="NSZZyUumAfaSoyWjECCj-12" value="" style="endArrow=classic;html=1;rounded=0;exitX=0.5;exitY=1;exitDx=0;exitDy=0;entryX=0.5;entryY=0;entryDx=0;entryDy=0;" parent="1" source="NSZZyUumAfaSoyWjECCj-9" target="NSZZyUumAfaSoyWjECCj-11" edge="1">
          <mxGeometry width="50" height="50" relative="1" as="geometry">
            <mxPoint x="390" y="430" as="sourcePoint" />
            <mxPoint x="440" y="380" as="targetPoint" />
          </mxGeometry>
        </mxCell>
        <mxCell id="NSZZyUumAfaSoyWjECCj-19" style="edgeStyle=orthogonalEdgeStyle;rounded=0;orthogonalLoop=1;jettySize=auto;html=1;exitX=0.5;exitY=1;exitDx=0;exitDy=0;entryX=0.5;entryY=0;entryDx=0;entryDy=0;" parent="1" source="NSZZyUumAfaSoyWjECCj-13" target="NSZZyUumAfaSoyWjECCj-18" edge="1">
          <mxGeometry relative="1" as="geometry" />
        </mxCell>
        <mxCell id="NSZZyUumAfaSoyWjECCj-13" value="Récupération des composantes RVB du pixel dans les variables r, v et b&amp;nbsp;" style="rounded=0;whiteSpace=wrap;html=1;" parent="1" vertex="1">
          <mxGeometry x="140" y="680" width="200" height="40" as="geometry" />
        </mxCell>
        <mxCell id="NSZZyUumAfaSoyWjECCj-15" value="Récupération du pixel x : y" style="rounded=0;whiteSpace=wrap;html=1;" parent="1" vertex="1">
          <mxGeometry x="140" y="600" width="200" height="40" as="geometry" />
        </mxCell>
        <mxCell id="NSZZyUumAfaSoyWjECCj-16" value="" style="endArrow=classic;html=1;rounded=0;exitX=0.5;exitY=1;exitDx=0;exitDy=0;entryX=0.25;entryY=0;entryDx=0;entryDy=0;" parent="1" source="NSZZyUumAfaSoyWjECCj-11" target="NSZZyUumAfaSoyWjECCj-15" edge="1">
          <mxGeometry width="50" height="50" relative="1" as="geometry">
            <mxPoint x="390" y="470" as="sourcePoint" />
            <mxPoint x="440" y="420" as="targetPoint" />
          </mxGeometry>
        </mxCell>
        <mxCell id="NSZZyUumAfaSoyWjECCj-17" value="" style="endArrow=classic;html=1;rounded=0;exitX=0.5;exitY=1;exitDx=0;exitDy=0;entryX=0.5;entryY=0;entryDx=0;entryDy=0;" parent="1" source="NSZZyUumAfaSoyWjECCj-15" target="NSZZyUumAfaSoyWjECCj-13" edge="1">
          <mxGeometry width="50" height="50" relative="1" as="geometry">
            <mxPoint x="390" y="470" as="sourcePoint" />
            <mxPoint x="440" y="420" as="targetPoint" />
          </mxGeometry>
        </mxCell>
        <mxCell id="NSZZyUumAfaSoyWjECCj-18" value="Enregistrement des valeurs RVB dans le pixel de coordonnée&lt;br&gt;&amp;nbsp;(1 + M)H + N + x : y&amp;nbsp;" style="rounded=0;whiteSpace=wrap;html=1;" parent="1" vertex="1">
          <mxGeometry x="140" y="760" width="200" height="60" as="geometry" />
        </mxCell>
        <mxCell id="NSZZyUumAfaSoyWjECCj-25" value="" style="endArrow=classic;html=1;rounded=0;entryX=1;entryY=0.5;entryDx=0;entryDy=0;" parent="1" target="NSZZyUumAfaSoyWjECCj-11" edge="1">
          <mxGeometry width="50" height="50" relative="1" as="geometry">
            <mxPoint x="110" y="560" as="sourcePoint" />
            <mxPoint x="440" y="620" as="targetPoint" />
            <Array as="points">
              <mxPoint x="110" y="860" />
              <mxPoint x="380" y="860" />
              <mxPoint x="380" y="540" />
            </Array>
          </mxGeometry>
        </mxCell>
        <mxCell id="NSZZyUumAfaSoyWjECCj-27" value="" style="endArrow=classic;html=1;rounded=0;exitX=0.1;exitY=1;exitDx=0;exitDy=0;exitPerimeter=0;entryX=1;entryY=0.5;entryDx=0;entryDy=0;" parent="1" source="NSZZyUumAfaSoyWjECCj-7" target="NSZZyUumAfaSoyWjECCj-7" edge="1">
          <mxGeometry width="50" height="50" relative="1" as="geometry">
            <mxPoint x="-30" y="490" as="sourcePoint" />
            <mxPoint x="510" y="910" as="targetPoint" />
            <Array as="points">
              <mxPoint x="60" y="900" />
              <mxPoint x="420" y="900" />
              <mxPoint x="420" y="360" />
            </Array>
          </mxGeometry>
        </mxCell>
        <mxCell id="NSZZyUumAfaSoyWjECCj-28" value="" style="endArrow=classic;html=1;rounded=0;exitX=0;exitY=1;exitDx=0;exitDy=0;entryX=0;entryY=0;entryDx=0;entryDy=0;" parent="1" source="NSZZyUumAfaSoyWjECCj-7" target="NSZZyUumAfaSoyWjECCj-29" edge="1">
          <mxGeometry width="50" height="50" relative="1" as="geometry">
            <mxPoint x="390" y="680" as="sourcePoint" />
            <mxPoint x="40" y="940" as="targetPoint" />
            <Array as="points">
              <mxPoint x="40" y="940" />
            </Array>
          </mxGeometry>
        </mxCell>
        <mxCell id="NSZZyUumAfaSoyWjECCj-29" value="Enregistrement de l&#39;image 2" style="rounded=0;whiteSpace=wrap;html=1;" parent="1" vertex="1">
          <mxGeometry x="40" y="940" width="200" height="40" as="geometry" />
        </mxCell>
        <mxCell id="m1P0dxApz12zkpkzzquo-1" value="La variable M correspond à la force de l&#39;effet ( valeur comprise entre 0 et 0,4)" style="text;html=1;align=center;verticalAlign=middle;whiteSpace=wrap;rounded=0;" vertex="1" parent="1">
          <mxGeometry x="40" width="200" height="40" as="geometry" />
        </mxCell>
      </root>
    </mxGraphModel>
  </diagram>
</mxfile>
